<svg xmlns="http://www.w3.org/2000/svg" width="500" height="500" fill="none" viewBox="0 0 500 500"><g clip-path="url(#clip0_5839_4443)"><path fill="#DEDEDE" fill-rule="evenodd" d="M203 109.22h93.65v-87.3H203v87.3Z" clip-rule="evenodd"/><path fill="#4C9EEA" fill-rule="evenodd" d="M202.86 32.23h93.46v-14.2h-93.46v14.2Z" clip-rule="evenodd"/><path fill="#F2F2F2" fill-rule="evenodd" d="M87.55 75.26S46.78 148.06 29 203.03c4.44 13.37 45.2 40.86 85.23 37.88 13.34-36.4 24.46-52 24.46-52s2.97-95.08-51.14-113.65M411.47 75.26s40.76 72.8 58.55 127.77c-4.44 13.37-45.2 40.86-85.23 37.88-13.34-36.4-24.46-52-24.46-52s-2.96-95.08 51.14-113.65" clip-rule="evenodd"/><path fill="#F2F2F2" fill-rule="evenodd" d="M249.51 57.7c-50.08 0-47.8-39.47-48.74-39.14-7.52 2.62-24.13 14.94-52.44 25.5-31.87 11.88-52.63 19.31-60.78 31.2 11.11 8.91 46.7 28.97 46.7 120.34v271.14s49.65 14.86 114.88 14.86c68.93 0 115.64-14.86 115.64-14.86V195.6c0-91.37 35.59-111.43 46.7-120.34-8.15-11.89-28.9-19.32-60.78-31.2-28.36-10.58-44.98-22.92-52.48-25.51-.92-.32 4.18 39.15-48.7 39.15Z" clip-rule="evenodd"/><path fill="#9ED1FF" fill-rule="evenodd" d="M75.02 117.3c10.14-20.75 17.95-35.25 17.95-35.25 7.88-11.88 27.94-19.31 58.75-31.2 19.13-7.38 32.8-15.6 41.77-20.78l-2.14-6.84c-9.25 5.17-23.3 13.34-43.03 20.7-31.86 11.89-52.62 19.31-60.77 31.2 0 0-8.23 14.76-18.86 35.82 0 0-28.7 57.34-39.69 92.08 0 0 .45 1.58 2.12 4.05 1.68 2.47 2.81 3.4 2.81 3.4 12.58-35.53 41.1-93.18 41.1-93.18ZM423.96 117.32c-10.13-20.75-17.95-35.27-17.95-35.27-7.88-11.88-27.94-19.31-58.75-31.2-19.04-7.34-32.37-15.46-41.14-20.6l1.66-6.91C317 28.48 331 36.6 350.65 43.93c31.87 11.89 52.62 19.31 60.78 31.2 0 0 8.23 14.76 18.85 35.82 0 0 27.59 54.46 39.74 92.08 0 0-.74 1.97-1.46 3.09-.72 1.1-2.38 3.18-2.38 3.18-27.64-65.99-42.22-91.98-42.22-91.98Z" clip-rule="evenodd"/><path fill="#9ED1FF" fill-rule="evenodd" d="M232.5 55.87c-27.93-6.67-30.69-29.6-31.43-35.77-.12-1.02-.19-1.58-.3-1.54-2.36.82-5.62 2.6-9.85 4.98v454.28a467.5 467.5 0 0 0 41.58 3.46V55.88Zm34.92-.01v425.39a474.8 474.8 0 0 0 41.58-3.41V24.04c-4.7-2.64-8.26-4.62-10.79-5.5-.1-.03-.13.49-.18 1.42-.3 5.98-1.44 29.16-30.6 35.9ZM134.25 466.74c.26.08 14.05 4.18 36.5 8.05-5.46-1-10.4-2-14.75-2.96V62.1c-14.12 12.6-21.75 27.89-21.75 43.37v361.28Zm209.67 5.23V62.29c13.98 12.55 21.53 27.77 21.53 43.17v68.86c-.45 6.63-.7 13.71-.7 21.29v271.14s-7.46 2.37-20.83 5.22Z" clip-rule="evenodd"/><path fill="#57AEFF" fill-rule="evenodd" d="M307.85 23.34c-5.77-3.23-9.73-5.34-12-5.34 0 0 5.88 32.5-46.34 32.5-48.52 0-46.34-32.5-46.34-32.5-2.28 0-6.23 2.1-12 5.34 0 0 7.37 40.39 58.4 40.39 51.48 0 58.28-35.9 58.28-40.38Z" clip-rule="evenodd"/><path fill="#000" fill-opacity=".1" fill-rule="evenodd" d="M413.58 238.32a93.75 93.75 0 0 1-28.8 2.6c-8.2-22.37-15.55-36.89-20-44.75v270.57s-21.1 6.71-55.87 11.12c-.18-.03-.37-.05-.55-.06l8.28-240.71c2.06-59.75 31.09-95.29 60.1-117.44a148.59 148.59 0 0 0-7 23.67c7.35 11.85 24.44 42.07 43.83 94.96l.01.04ZM190.72 477.8c-34.25-4.4-56.48-11.06-56.48-11.06V196.17c-4.46 7.87-11.81 22.38-20 44.75a93.6 93.6 0 0 1-28.52-2.53l.02-.1c19.38-52.84 36.3-83.06 43.61-94.94a148.74 148.74 0 0 0-7-23.7c29 22.15 58.04 57.69 60.1 117.44l8.27 240.7Z" clip-rule="evenodd"/><path fill="#B5852B" d="m308.98 119.02.02-.02.02.02c.47.34 8.42 6.21 16.4 1.48C337 140 317.52 162.47 309 167c-8.51-4.53-28-27-16.42-46.5 7.98 4.73 15.93-1.14 16.4-1.48Z"/><path fill="#0E3F8C" d="M296.78 151.37c3.82 6.17 8.8 10.86 12.22 12.63 6.68-3.46 19.34-18.08 17.57-33.07l-29.79 20.44Z"/><path fill="#9ED1FF" d="M316.8 125.5c-4.06-.78-7.3-3.13-7.75-3.46a1.66 1.66 0 0 1-.03-.03L309 122l-.02.01-.04.03c-.72.53-8.69 6.33-15.72 2.27-2.6 5.98-2.38 12.16-.67 17.83l24.26-16.64Z"/><path fill="#fff" fill-rule="evenodd" d="M326.22 128.83 295.8 149.7c-1-1.79-1.9-3.69-2.61-5.66l26.68-18.31c1.62-.07 3.29-.48 4.9-1.42.66 1.5 1.13 3 1.45 4.52Z" clip-rule="evenodd"/><circle cx="309" cy="137" r="6" fill="#F6E966"/></g><defs><clipPath id="clip0_5839_4443"><path fill="#fff" d="M0 0h500v500H0z"/></clipPath></defs></svg>