<?xml version="1.0" encoding="UTF-8"?><svg width="500" height="500" viewBox="0 0 500 500" xmlns="http://www.w3.org/2000/svg"><g fill="none" fill-rule="evenodd"><path d="M0 0h500v500H0z"/><path fill="#D9D9D9" d="M203.0033 109.223h93.6432V21.928h-93.6432z"/><path fill="#393939" d="M202.8636 31.028h93.4586v-13h-93.4586z"/><path d="M87.5475 75.2585s-40.7627 72.8-58.5475 127.77c4.445 13.375 45.2077 40.86 85.2322 37.885 13.3398-36.4 24.4596-52 24.4596-52s2.9633-95.085-51.1443-113.655m323.9252 0s40.7628 72.8 58.5475 127.77c-4.445 13.375-45.2077 40.86-85.2321 37.885-13.3399-36.4-24.4597-52-24.4597-52s-2.9633-95.085 51.1443-113.655" fill="#F2F2F2"/><path d="M249.5111 57.7025c-50.0817 0-47.7981-39.469-48.7426-39.14-7.5158 2.6187-24.1326 14.9368-52.4385 25.495-31.8729 11.885-52.626 19.315-60.7825 31.2 11.1149 8.915 46.6944 28.97 46.6944 120.345v271.14s49.6576 14.855 114.885 14.855c68.9291 0 115.6484-14.855 115.6484-14.855v-271.14c0-91.375 35.5795-111.43 46.6994-120.345-8.1566-11.885-28.9096-19.315-60.7825-31.2-28.3599-10.5767-44.9818-22.9194-52.478-25.5106-.9273-.3184 4.1773 39.1556-48.703 39.1556z" fill="#F2F2F2"/><path d="M201.7883 27.1166l1.7264 3.2146-1.5297.8663c-8.9454 5.0961-22.6162 13.2987-41.8795 20.6997L148.954 56.134c-24.1175 9.1985-40.4568 15.9863-48.1647 25.5979a49.9048 49.9048 0 00-3.3805-1.9139c8.512-11.2394 28.5881-18.5704 58.9056-30.078 19.2587-7.3123 33.0094-15.4687 42.0967-20.6626l-.0102-.0499 1.754-.9978c.5646-.319 1.109-.6237 1.6334-.9131zm-9.2451-2.1038l1.735 3.229-4.2297 2.4198c-8.8458 5.0283-20.9174 11.5776-36.6776 17.5615l-7.955 3.0188c-25.962 9.8705-43.3019 16.8726-51.0184 27.1479a48.7892 48.7892 0 00-2.9256-1.1799l-.7492-.2682c8.011-11.8867 28.3987-19.3167 59.7106-31.2017 19.2587-7.3123 33.0094-15.4687 42.0968-20.6626l-.0103-.0499.0233-.0147zm104.5215 5.8388l1.5808-3.3039 1.5336.8651c.3519.2.7112.405 1.078.6147l-.0103.05 5.0183 2.8729c8.8809 5.0574 21.079 11.7148 37.0785 17.7896l8.7874 3.3354c25.4325 9.6786 42.4613 16.629 50.1248 26.75-1.1632.5936-2.2906 1.2314-3.388 1.9064-8.7555-10.9212-28.6611-18.1972-58.4618-29.5087l-1.7635-.6778c-15.1484-5.8932-26.7827-12.2525-35.3364-17.124l-6.2414-3.5697zM307.0908 25l.0474.0275-.0103.05 5.0183 2.8729c8.8808 5.0574 21.0789 11.7148 37.0785 17.7896l9.839 3.7359c25.4773 9.71 42.351 16.715 49.6275 27.1106l.244.3552a53.144 53.144 0 00-3.6767 1.4463c-8.4742-11.2884-28.5757-18.6276-58.9714-30.1649-16.4412-6.2424-28.868-13.1002-37.8062-18.2046l-2.8014-1.605L307.0908 25zm61.9907 72.9167l-234.84 367.3605v-107.575l185.877-290.7696c21.7615 6.9769 38.4058 18.0212 48.963 30.9841z" fill="#D13C2F"/><path d="M307.8516 23.345c-5.772-3.24-9.728-5.345-12.0078-5.345 0 0 5.8817 32.495-46.3352 32.495-48.5202 0-46.3352-32.495-46.3352-32.495-2.2798 0-6.2358 2.105-12.0028 5.345 0 0 7.3683 40.38 58.4029 40.38 51.4785 0 58.2781-35.895 58.2781-40.38z" fill="#F1F1F1"/><path fill="#E0E0E0" d="M202.8666 32.298h93.4586v-7.1h-93.4586z"/><path d="M295.8468 18.0265c1.7847 0 4.5968 1.29 8.503 3.4048-7.1737 24.4814-25.348 36.7213-54.5219 36.7213-29.263 0-47.5089-12.3148-54.7376-36.9443 3.6898-1.9827 6.3654-3.1818 8.0861-3.1818 0 0-2.185 32.495 46.3352 32.495 52.2169 0 46.3352-32.495 46.3352-32.495z" fill="#3D3D3D"/><path d="M413.5843 238.3227c-9.2877 2.2382-19.0646 3.3161-28.7978 2.5926-8.1978-22.369-15.5572-36.883-20.0128-44.7484v270.5774s-21.1022 6.7098-55.8664 11.1104c-.1817-.0197-.363-.0396-.544-.0597 1.8808-54.795 5.7221-166.47 8.2763-240.705 2.0554-59.755 31.0847-95.29 60.099-117.44-2.6753 6.7806-5.0714 14.6063-6.9991 23.6673 7.354 11.8514 24.4358 42.0687 43.8307 94.964.005.014.0097.0277.014.0414zM190.7166 477.7953c-34.2478-4.4014-56.4763-11.051-56.4763-11.051V196.1721c-4.4558 7.8668-11.8138 22.3792-20.0097 44.7432-9.633.716-19.3087-.3323-28.5106-2.5238a1.113 1.113 0 01.0199-.0967c19.3773-52.8475 36.3054-83.0661 43.6098-94.9437-1.929-9.0753-4.3277-16.912-7.0064-23.7011 29.0144 22.15 58.0437 57.685 60.099 117.44 2.5543 74.235 6.3956 185.91 8.2763 240.7053h-.002z" fill-opacity=".06" fill="#000"/><g transform="translate(289.6985 118.823)"><path d="M38.3062 6.0737L32.0022 0l-.6385.2513C28.1104 1.5314 24.0898 2.177 19.3013 2.177l-.6304-.0037c-4.5087-.054-8.3211-.698-11.432-1.922L6.6003 0 .3062 6.0643l.7041.9655c1.655 2.345 2.5337 5.7308 2.5943 10.155l.0086 1.035c.2373 12.338 5.494 25.9305 14.908 29.7328l.7718.299.3811-.1413c9.6772-3.589 15.0765-17.3372 15.3152-29.8878l.0088-1.0493c.0636-4.5777 1.0055-8.0444 2.7873-10.4086l.5208-.6909z" fill="#0D0D0D" fill-rule="nonzero"/><path d="M18.915 47.0303C7.7367 41.2848 4.8229 25.9291 4.6715 18.2103l-.0054-.5296c0-4.852-.9475-8.594-2.8425-11.226L1.617 6.177l4.9786-5c3.3065 1.2754 7.3252 1.9408 12.0563 1.9963l.6496.0037c5.0138 0 9.249-.6666 12.7058-2l4.8065 5c-1.9627 2.5527-2.8052 6.2154-2.873 10.9881l-.0087 1.039c.0088 7.8191-3.2646 23.664-14.6306 28.973l-.3865-.1468z" fill="#FFF"/><path d="M30.0863 3.3445l3.4839 3.561-19.0466 34.6371c-2.599-2.986-4.6717-7.292-5.9961-11.943L22.0816 4.9528c2.6861-.1381 5.2603-.5044 7.1726-1.2543l.328-.1353.5041-.2188z" fill="#EC122A" fill-rule="nonzero"/><path d="M31.3018 15.0683L16.1937 42.5426c.9053.8178 1.924 1.4613 3.6115 1.8119 3.1378-1.5526 5.7973-5.064 7.7624-9.37 2.205-4.8319 3.5281-10.6777 3.62-16.0058l.0133-1.3225c.0157-.8663.047-1.7363.101-2.5879zM8.6228 3.9402L5.4952 7.582C6.94 9.6955 7.346 13.9664 7.3977 18.0677l.007.9158c.0402 2.3293.3169 4.7613.8 7.1645l11.345-20.629c-.1997.0005-.4376.0005-.7338-.0001-3.7094-.0287-7.4942-.408-10.193-1.5788z" stroke="#000"/><circle fill="#000" cx="19.3015" cy="21.177" r="9"/><circle fill="#FFF" cx="19.3015" cy="21.177" r="8"/><circle fill="#000" opacity=".4" cx="19.3015" cy="21.177" r="6"/></g></g></svg>