<?xml version="1.0" encoding="UTF-8"?><svg width="500" height="500" viewBox="0 0 500 500" xmlns="http://www.w3.org/2000/svg"><g fill="none" fill-rule="evenodd"><path d="M0 0h500v500H0z"/><path fill="#A90D19" d="M203.0033 109.223h93.6432V21.928h-93.6432z"/><path fill="#C1111F" d="M202.8636 32.228h93.4586v-14.2h-93.4586z"/><path d="M87.5475 75.2585s-40.7627 72.8-58.5475 127.77c4.445 13.375 45.2077 40.86 85.2322 37.885 13.3398-36.4 24.4596-52 24.4596-52s2.9633-95.085-51.1443-113.655m323.9252 0s40.7628 72.8 58.5475 127.77c-4.445 13.375-45.2077 40.86-85.2321 37.885-13.3399-36.4-24.4597-52-24.4597-52s-2.9633-95.085 51.1443-113.655" fill="#D21322"/><path d="M249.5111 57.7025c-50.0817 0-47.7981-39.469-48.7426-39.14-7.5158 2.6187-24.1326 14.9368-52.4385 25.495-31.8729 11.885-52.626 19.315-60.7825 31.2 11.1149 8.915 46.6944 28.97 46.6944 120.345v271.14s49.6576 14.855 114.885 14.855c68.9291 0 115.6484-14.855 115.6484-14.855v-271.14c0-91.375 35.5795-111.43 46.6994-120.345-8.1566-11.885-28.9096-19.315-60.7825-31.2-28.3599-10.5767-44.9818-22.9194-52.478-25.5106-.9273-.3184 4.1773 39.1556-48.703 39.1556z" fill="#D21322"/><path d="M249.5086 50.495c23.7311 0 35.4623-6.7117 41.1992-14.0345l3.1917.8393c45.2857 11.3388 71.5505 39.4268 71.5505 68.1606v68.8566c-.4552 6.6283-.7 13.7123-.7 21.2863v271.1413s-43.1625 13.7096-107.7345 14.788a478.517 478.517 0 01-7.8885.0649c-64.9013 0-114.3881-14.7068-114.8814-14.8539l.0044-361.2832c0-28.4516 25.7514-56.2699 70.2216-67.8175l5.219-1.3266c6.0373 7.3787 17.6223 14.1787 39.818 14.1787z" fill="#C80F1D"/><path d="M364.7834 196.1508v270.5637s-2.6152.8315-7.521 2.1011V198.0288c1.6614-.6584 3.103-1.134 4.3249-1.4268.789-.189 1.8545-.3395 3.1961-.4512zM141.75 468.719c-4.8608-1.215-7.5-2.0045-7.5-2.0045v-270.562c1.3318.1116 2.3902.2614 3.1752.4495 1.2219.2928 2.6635.7684 4.3248 1.4268V468.719z" fill="#356DCF"/><path d="M307.8516 23.345c-5.772-3.24-9.728-5.345-12.0078-5.345 0 0 5.8817 32.495-46.3352 32.495-48.5202 0-46.3352-32.495-46.3352-32.495-2.2798 0-6.2358 2.105-12.0028 5.345 0 0 7.3683 40.38 58.4029 40.38 51.4785 0 58.2781-35.895 58.2781-40.38z" fill="#D21322"/><path d="M413.5843 238.3227c-9.2877 2.2382-19.0646 3.3161-28.7978 2.5926-8.1978-22.369-15.5572-36.883-20.0128-44.7484v270.5774s-21.1022 6.7098-55.8664 11.1104c-.1817-.0197-.363-.0396-.544-.0597 1.8808-54.795 5.7221-166.47 8.2763-240.705 2.0554-59.755 31.0847-95.29 60.099-117.44-2.6753 6.7806-5.0714 14.6063-6.9991 23.6673 7.354 11.8514 24.4358 42.0687 43.8307 94.964.005.014.0097.0277.014.0414zM190.7166 477.7953c-34.2478-4.4014-56.4763-11.051-56.4763-11.051V196.1721c-4.4558 7.8668-11.8138 22.3792-20.0097 44.7432-9.633.716-19.3087-.3323-28.5106-2.5238a1.113 1.113 0 01.0199-.0967c19.3773-52.8475 36.3054-83.0661 43.6098-94.9437-1.929-9.0753-4.3277-16.912-7.0064-23.7011 29.0144 22.15 58.0437 57.685 60.099 117.44 2.5543 74.235 6.3956 185.91 8.2763 240.7053h-.002z" fill-opacity=".08" fill="#000"/><path d="M292 124.6354c4.6667-2.4065 10.3333-4.285 17-5.6354 6.6667 1.3504 12.3333 3.2289 17 5.6354v19.8302c0 14.422-11.0545 19.8303-17 22.5344-5.9455-2.7041-17-8.1124-17-22.5344v-19.8302z" fill="#0650A1"/><path d="M293.4167 126.1658c4.2777-2.206 9.4722-3.928 15.5833-5.1658 6.1111 1.2379 11.3056 2.9598 15.5833 5.1658v18.1777c0 13.2202-10.1333 18.1777-15.5833 20.6565-5.45-2.4788-15.5833-7.4363-15.5833-20.6565v-18.1777z" fill="#FFF"/><path d="M294.8333 127.6962c3.889-2.0055 8.6111-3.5709 14.1667-4.6962 5.5556 1.1253 10.2778 2.6907 14.1667 4.6962v16.5252c0 12.0183-9.2121 16.5252-14.1667 18.7786-4.9546-2.2534-14.1667-6.7603-14.1667-18.7786v-16.5252z" fill="#0650A1"/><path d="M309 147c5.1874 0 9.4961 3.7617 10.3473 8.706-3.1144 3.8964-7.4559 5.979-10.3473 7.294l-.9408-.4339c-2.8354-1.3313-6.6135-3.3663-9.4056-6.8578C299.5033 150.7622 303.8123 147 309 147z" fill="#F2F2F2"/><path d="M309 127c4.0565 0 7.4153 3.151 7.6741 7.1993.2173 3.3994.3259 7.074.3259 11.024 0 4.4234-.1362 8.8495-.4087 13.2783-2.6115 2.1762-5.4858 3.5408-7.5913 4.4984l-.686-.315c-2.0089-.9328-4.5417-2.222-6.8682-4.153l-.1-1.705c-.2305-4.16-.3458-8.0279-.3458-11.6037 0-3.6976.1232-7.3927.3697-11.0854C301.638 130.1211 304.9743 127 309 127z" fill="#F2F2F2"/></g></svg>