<?xml version="1.0" encoding="UTF-8"?><svg height="500" viewBox="0 0 500 500" width="500" xmlns="http://www.w3.org/2000/svg"><g fill="none" fill-rule="evenodd"><path d="M0 0h500v500H0z"/><path d="M203.003 109.223h93.643V21.928h-93.643z" fill="#003f86"/><path d="M202.864 32.228h93.458v-14.2h-93.458z" fill="#004798"/><g fill="#004ca2"><path d="M87.548 75.258S46.785 148.058 29 203.029c4.445 13.376 45.208 40.86 85.232 37.886 13.34-36.4 24.46-52 24.46-52s2.963-95.085-51.144-113.655M411.473 75.258s40.762 72.8 58.547 127.77c-4.445 13.376-45.208 40.86-85.232 37.886-13.34-36.4-24.46-52-24.46-52s-2.963-95.085 51.145-113.655"/><path d="M249.511 57.703c-50.082 0-47.798-39.47-48.742-39.14-7.516 2.618-24.133 14.936-52.439 25.495-31.873 11.885-52.626 19.315-60.782 31.2 11.114 8.915 46.694 28.97 46.694 120.345v271.14s49.658 14.855 114.885 14.855c68.929 0 115.648-14.855 115.648-14.855v-271.14c0-91.375 35.58-111.43 46.7-120.345-8.157-11.885-28.91-19.315-60.783-31.2-28.36-10.577-44.982-22.92-52.478-25.511-.927-.318 4.177 39.156-48.703 39.156z"/></g><path d="M293.214 38.24c45.577 13.163 72.022 43.753 72.022 57.032v82.909c-.301 5.5-.46 11.3-.46 17.421v271.14s-46.72 14.855-115.649 14.855c-65.227 0-114.885-14.854-114.885-14.854v-271.14c0-6.262-.167-12.189-.482-17.8V95.272c0-13.367 26.799-44.277 72.935-57.293 5.801 9.836 17.75 19.724 42.816 19.724 26.23 0 38.194-9.713 43.703-19.464z" fill="#0051b4"/><path d="M249.576 63.752c51.479 0 58.279-35.896 58.279-40.38-5.772-3.24-9.728-5.346-12.008-5.346 0 0 5.881 32.495-46.335 32.495-48.52 0-46.336-32.495-46.336-32.495-2.28 0-6.235 2.105-12.002 5.345 0 0 7.368 40.38 58.402 40.38" fill="#0051b4"/><path d="M288 122.913c7-1.275 14-1.913 21-1.913s14 .638 21 1.913c0 20.457-7 34.486-21 42.087-14-7.602-21-21.631-21-42.087z" fill="#fdfdfd"/><path d="M291 125.652c6-1.101 12-1.652 18-1.652s12 .55 18 1.652c0 17.667-6 29.783-18 36.348-12-6.566-18-18.682-18-36.348z" fill="#0058aa" fill-rule="nonzero"/><path d="M309 159.7c10.297-6.083 15.628-16.785 15.981-32.37A97.24 97.24 0 0 0 309 126a97.24 97.24 0 0 0-15.981 1.33c.353 15.584 5.684 26.286 15.981 32.37z" fill="#fdfdfd" fill-rule="nonzero"/><path d="M291 125.652c6.208-.916 10.864-1.439 13.969-1.566 1.462 16.464 2.58 18.714 14.506 28.87-2.604 3.585-6.096 6.6-10.475 9.044-12-6.566-18-18.682-18-36.348z" fill="#0058aa"/><path d="M413.584 238.323c-9.287 2.238-19.064 3.316-28.798 2.592-8.197-22.369-15.557-36.883-20.012-44.748v270.577s-21.102 6.71-55.867 11.11l-.544-.059c1.881-54.795 5.722-166.47 8.277-240.705 2.055-59.755 31.084-95.29 60.099-117.44-2.676 6.78-5.072 14.606-7 23.667 7.354 11.852 24.436 42.069 43.831 94.964l.014.042zM190.717 477.795c-34.248-4.401-56.477-11.05-56.477-11.05V196.171c-4.456 7.867-11.813 22.38-20.01 44.743-9.632.716-19.308-.332-28.51-2.523.005-.033.012-.065.02-.097 19.377-52.848 36.305-83.066 43.61-94.944-1.93-9.075-4.328-16.912-7.007-23.701 29.015 22.15 58.044 57.685 60.1 117.44 2.554 74.235 6.395 185.91 8.276 240.705z" fill="#000" fill-opacity=".1"/><path d="M302.11 39.614a150.702 150.702 0 0 0-7.565-2.148c8.63-7.842 9.216-16.31 9.216-16.31-1.119-.683.246.056 4.094 2.216 0 1.8-1.097 8.668-5.744 16.242zm-104.028-.363c-5.557-8.47-6.908-15.88-6.908-15.88 3.844-2.16 5.31-2.984 4.398-2.474-.257 0 1.297 8.403 10.136 16.259a152.362 152.362 0 0 0-7.626 2.095z" fill="#f2f2f2"/><path d="M209.734 36.392c-2.281.5-4.517 1.04-6.706 1.62-3.4-4.758-6.046-10.36-7.938-16.804 3.69-1.982 6.365-3.182 8.086-3.182 0 0-.645 9.601 6.558 18.366zm80.827.284c7.061-8.84 5.286-18.65 5.286-18.65 1.785 0 4.597 1.29 8.504 3.406-1.878 6.407-4.509 11.975-7.893 16.705a157.865 157.865 0 0 0-5.897-1.461z" fill="#004ca2"/></g></svg>