<?xml version="1.0" encoding="utf-8"?><svg width="500" height="500" viewBox="0 0 500 500" fill="none" xmlns="http://www.w3.org/2000/svg"><path fill-rule="evenodd" clip-rule="evenodd" d="M203.004 109.223h93.643V21.928h-93.643v87.295Z" fill="#C8C8C8"/><path fill-rule="evenodd" clip-rule="evenodd" d="M202.863 32.228h93.459v-14.2h-93.459v14.2Z" fill="#DCDCDC"/><path fill-rule="evenodd" clip-rule="evenodd" d="M87.547 75.258S46.785 148.058 29 203.028c4.445 13.375 45.208 40.86 85.232 37.885 13.34-36.4 24.46-52 24.46-52s2.963-95.085-51.145-113.655ZM411.474 75.258s40.763 72.8 58.547 127.77c-4.444 13.375-45.207 40.86-85.232 37.885-13.339-36.4-24.459-52-24.459-52s-2.964-95.085 51.144-113.655Z" fill="#F2F2F2"/><path fill-rule="evenodd" clip-rule="evenodd" d="M249.51 57.703c-50.081 0-47.798-39.47-48.742-39.14-7.516 2.618-24.133 14.936-52.439 25.494-31.873 11.886-52.626 19.316-60.782 31.2 11.115 8.915 46.694 28.97 46.694 120.345v271.14s49.658 14.856 114.885 14.856c68.929 0 115.649-14.856 115.649-14.856v-271.14c0-91.375 35.579-111.43 46.699-120.345-8.157-11.885-28.91-19.315-60.782-31.2-28.36-10.576-44.982-22.919-52.479-25.508-.927-.32 4.178 39.154-48.703 39.154Z" fill="#F2F2F2"/><path d="M103.453 87.82c4.595-4.38 8.135-7.96 14.047-10.82 7.367-3.564 17.67-7.016 27.797-10.409 11.18-3.745 22.144-7.418 28.703-11.09 5.017-2.81 18.719-9.094 33.779-15.794 6.162 9.233 18.134 17.996 41.732 17.996 24.722 0 36.771-8.628 42.687-17.784C307.07 46.539 320.536 52.72 325.5 55.5c6.559 3.673 17.523 7.346 28.703 11.091 10.127 3.393 20.43 6.845 27.797 10.41 5.794 2.802 9.23 6.297 13.77 10.616-14.49 14.283-30.995 42.087-30.995 107.986v271.14s-46.719 14.855-115.649 14.855c-65.227 0-114.885-14.855-114.885-14.855v-271.14c0-65.588-16.331-93.431-30.788-107.783Z" fill="#275394"/><path fill-rule="evenodd" clip-rule="evenodd" d="M75.025 117.299c10.132-20.75 17.944-35.246 17.944-35.246 7.882-11.885 27.937-19.315 58.747-31.2 19.136-7.385 32.799-15.608 41.775-20.78l-2.144-6.838c-9.249 5.163-23.298 13.338-43.023 20.693-31.868 11.89-52.62 19.315-60.773 31.2 0 0-8.23 14.76-18.857 35.826 0 0-28.706 57.334-39.694 92.074 0 0 .45 1.587 2.123 4.055 1.673 2.468 2.807 3.396 2.807 3.396 12.579-35.526 41.095-93.18 41.095-93.18ZM423.964 117.322c-10.132-20.75-17.957-35.269-17.957-35.269-7.883-11.885-27.937-19.315-58.747-31.2-19.037-7.347-32.369-15.466-41.144-20.602l1.659-6.914c9.229 5.146 23.222 13.262 42.877 20.59 31.868 11.891 52.621 19.316 60.772 31.201 0 0 8.232 14.76 18.858 35.825 0 0 27.583 54.457 39.738 92.074 0 0-.737 1.976-1.458 3.088s-2.385 3.188-2.385 3.188c-27.641-65.988-42.213-91.981-42.213-91.981Z" fill="#F2F2F2"/><path fill-rule="evenodd" clip-rule="evenodd" d="M96.646 80.788c8.539-11.24 28.659-18.57 59.041-30.076 19.302-7.312 33.083-15.468 42.191-20.662a18.71 18.71 0 0 1-.009-.05 260.093 260.093 0 0 1 3.394-1.91l1.73 3.214c-9.03 5.064-23.459 13.972-44.362 21.891-29.863 11.31-49.812 18.585-58.594 29.504a52.142 52.142 0 0 0-3.391-1.91Zm-6.7-2.875c8.03-11.886 28.464-19.316 59.847-31.201 19.301-7.312 33.083-15.468 42.191-20.662a1.809 1.809 0 0 1-.01-.05l.024-.014 1.738 3.228c-9.103 5.208-22.521 12.981-40.999 19.981-30.458 11.535-50.603 18.874-59.106 30.161l-3.686-1.443ZM402.183 80.791a52.162 52.162 0 0 0-3.391 1.911c-8.781-10.92-28.73-18.196-58.596-29.507-20.204-7.654-34.36-16.233-43.438-21.37l1.584-3.305c.826.461 1.698.956 2.617 1.48l-.01.05c9.108 5.194 22.889 13.35 42.191 20.662 30.384 11.507 50.505 18.838 59.043 30.08Zm6.7-2.876c-1.26.44-2.488.921-3.686 1.444-8.501-11.29-28.646-18.628-59.107-30.164-18.275-6.923-31.602-14.603-40.698-19.809l1.413-3.414.048.028-.01.05c9.108 5.194 22.89 13.35 42.191 20.662 31.383 11.885 51.817 19.315 59.848 31.2v.001l.001.002Z" fill="#254E8B"/><path d="M156.003 62.954c7.146-2.5 13.573-4.977 17.997-7.454 3.023-1.693 9.198-4.646 16.923-8.192l-.001 430.511a469.589 469.589 0 0 1-20.155-3.024A418.713 418.713 0 0 1 156 471.833l.003-408.88ZM309 47.502l.002 430.339c14.034-1.779 25.838-3.934 34.92-5.87V63.102c-7.316-2.55-13.911-5.076-18.422-7.602-2.967-1.662-8.972-4.538-16.5-7.998ZM249.51 50.495c-6.552 0-12.179-.592-17.012-1.617l.002 432.403c5.411.204 10.961.317 16.629.317 6.289 0 12.393-.124 18.294-.349l.002-432.328c-5.043.998-10.964 1.574-17.915 1.574Z" fill="#F2F2F2"/><path fill-rule="evenodd" clip-rule="evenodd" d="M307.853 23.345c-5.772-3.24-9.728-5.345-12.008-5.345 0 0 5.882 32.495-46.335 32.495-48.52 0-46.335-32.495-46.335-32.495-2.28 0-6.236 2.105-12.003 5.345 0 0 7.368 40.38 58.403 40.38 51.478 0 58.278-35.895 58.278-40.38Z" fill="#F2F2F2"/><path fill-rule="evenodd" clip-rule="evenodd" d="M413.584 238.323c-9.288 2.238-19.065 3.316-28.798 2.592-8.198-22.369-15.557-36.883-20.013-44.748v270.577s-21.102 6.71-55.866 11.111l-.544-.06c1.881-54.795 5.722-166.47 8.276-240.705 2.056-59.755 31.085-95.29 60.099-117.44-2.675 6.781-5.071 14.606-6.999 23.667 7.354 11.852 24.436 42.069 43.831 94.964l.014.042ZM190.716 477.795c-34.248-4.401-56.476-11.051-56.476-11.051V196.172c-4.456 7.867-11.814 22.379-20.01 44.743-9.633.716-19.308-.332-28.51-2.523.005-.032.011-.065.02-.097 19.377-52.848 36.305-83.066 43.609-94.944-1.928-9.075-4.327-16.912-7.006-23.701 29.014 22.15 58.044 57.685 60.099 117.44 2.554 74.235 6.396 185.91 8.276 240.705h-.002Z" fill="#000" fill-opacity=".06"/><path d="M298.838 161.589c-5.298.988-5.561-4.244-10.012-8.032 2.812-6.308-1.749-9.899 2.996-12.606-2.329-4.663 4.9-7.011 4.787-11.46 4.04 1.591 6.218-4.33 12.393-.585 6.213-3.786 8.255 2.214 12.392.585-.114 4.484 6.96 6.736 4.833 11.566 4.781 2.488.155 6.214 2.95 12.501-4.324 3.755-4.791 9.057-10.017 8.004-.742 5.001-5.159 2.84-10.173 6.438-4.933-3.476-9.476-1.5-10.149-6.411Z" fill="#F2F2F2"/><path d="M299.721 160.395c-4.837.902-5.078-3.873-9.141-7.33 2.568-5.756-1.597-9.034 2.735-11.504-2.126-4.256 4.474-6.399 4.372-10.458 3.688 1.451 5.676-3.952 11.314-.534 5.673-3.456 7.538 2.021 11.315.534-.104 4.092 6.355 6.147 4.412 10.554 4.366 2.271.142 5.672 2.694 11.408-3.948 3.427-4.374 8.266-9.146 7.305-.677 4.564-4.71 2.592-9.288 5.876-4.504-3.173-8.652-1.369-9.267-5.851Z" fill="#2660B7"/><circle cx="309.004" cy="147.825" r="10.526" fill="#F2F2F2"/><path d="m302.864 118 .984 3.031h3.187l-2.578 1.873.985 3.03-2.578-1.873-2.579 1.873.985-3.03-2.578-1.873h3.187l.985-3.031ZM315.143 118l.985 3.031h3.186l-2.578 1.873.985 3.03-2.578-1.873-2.578 1.873.985-3.03-2.578-1.873h3.186l.985-3.031Z" fill="#EAE453"/></svg>