<?xml version="1.0" encoding="UTF-8"?><svg height="500" viewBox="0 0 500 500" width="500" xmlns="http://www.w3.org/2000/svg"><g fill="none" fill-rule="evenodd"><path d="M0 0h500v500H0z"/><path d="M203.003 109.223h93.643V21.928h-93.643z" fill="#c92f2f"/><path d="M202.864 32.228h93.458v-14.2h-93.458z" fill="#363636"/><path d="M87.548 75.258S46.785 148.058 29 203.029c4.445 13.376 45.208 40.86 85.232 37.886 13.34-36.4 24.46-52 24.46-52s2.963-95.085-51.144-113.655M411.473 75.258s40.762 72.8 58.547 127.77c-4.445 13.376-45.208 40.86-85.232 37.886-13.34-36.4-24.46-52-24.46-52s-2.963-95.085 51.145-113.655" fill="#e03535"/><path d="M249.511 57.703c-50.082 0-47.798-39.47-48.742-39.14-7.516 2.618-24.133 14.936-52.439 25.495-31.873 11.885-52.626 19.315-60.782 31.2 11.114 8.915 46.694 28.97 46.694 120.345v271.14s49.658 14.855 114.885 14.855c68.929 0 115.648-14.855 115.648-14.855v-271.14c0-91.375 35.58-111.43 46.7-120.345-8.157-11.885-28.91-19.315-60.783-31.2-28.36-10.577-44.982-22.92-52.478-25.511-.927-.318 4.177 39.156-48.703 39.156z" fill="#e03535"/><path d="M294.068 36.627c11.218-.3 23.34-.7 36.367-1.2a241.964 241.964 0 0 0 20.257 8.63c15.217 5.675 27.899 10.333 37.886 14.946a2405.262 2405.262 0 0 1-139.08 4.027c-46.352 0-92.704-1.342-139.057-4.026 9.988-4.613 22.67-9.272 37.889-14.946a242.051 242.051 0 0 0 20.263-8.636c13.41.515 25.862.924 37.355 1.228 5.497 10.253 17.366 21.053 43.563 21.053 27.677 0 39.47-10.814 44.557-21.076zM391.95 92.99c-5.078 6.184-10.278 14.329-14.752 25.285a2564.64 2564.64 0 0 1-127.7 3.183c-42.56 0-85.119-1.061-127.678-3.182-4.474-10.957-9.674-19.103-14.753-25.287 61.575 2.9 109.084 4.35 142.526 4.35 33.437 0 80.89-1.449 142.357-4.349zM364.775 213.26v26.29a2404.16 2404.16 0 0 1-230.533.001v-26.294c48.556 2.223 87.006 3.334 115.35 3.334 28.333 0 66.727-1.11 115.183-3.33zm0 60.429v26.29a2404.16 2404.16 0 0 1-230.533 0v-26.293c48.556 2.222 87.006 3.334 115.35 3.334 28.333 0 66.727-1.11 115.183-3.331zm0 60.428v26.29a2404.16 2404.16 0 0 1-230.533.001v-26.294c48.556 2.223 87.006 3.334 115.35 3.334 28.333 0 66.727-1.11 115.183-3.33zm0 60.245v24.647a2564.124 2564.124 0 0 1-230.533 0v-24.65c48.556 2.084 87.006 3.126 115.35 3.126 28.333 0 66.727-1.041 115.183-3.123zm0 58.612v13.77s-46.719 14.854-115.648 14.854c-65.227 0-114.885-14.855-114.885-14.855V452.97c48.556 2.223 87.006 3.335 115.35 3.335 28.333 0 66.727-1.11 115.183-3.332zM133.83 179.102a268.296 268.296 0 0 0-.996-13.164 196.85 196.85 0 0 0-1.7-13.254c50.025 2.319 89.512 3.478 118.459 3.478 28.9 0 68.268-1.156 118.106-3.466-1.446 8.113-2.355 16.918-2.727 26.415a2404.168 2404.168 0 0 1-231.142-.01z" fill="#000" fill-opacity=".05"/><g fill="#3d3d3d"><path d="M202.215 24.577l1.749 3.198c-9.027 4.858-24.145 14.369-46.657 22.766-31.873 11.885-52.626 19.315-60.78 31.201-.003 0-11.08 19.783-24.205 46.512a52.893 52.893 0 0 1-3.11-2.238c13.177-26.854 24.322-46.757 24.322-46.757h.002c8.155-11.886 28.908-19.316 60.78-31.201 19.604-7.313 33.602-15.47 42.852-20.663-.008-.033-.01-.05-.01-.05a189.648 189.648 0 0 1 5.057-2.768z"/><path d="M203.173 18s-.082 1.229.141 3.208c-7.716 2.93-24.233 14.978-51.994 25.333-31.873 11.885-52.626 19.315-60.78 31.201h-.002S79.46 97.525 66.335 124.254a52.82 52.82 0 0 1-3.11-2.238c13.178-26.854 24.323-46.758 24.323-46.758l.002.001c8.154-11.887 28.907-19.317 60.78-31.202 19.604-7.312 33.601-15.468 42.851-20.662l-.01-.05c5.767-3.24 9.723-5.345 12.002-5.345zM299.093 25.807c.87.478 1.79.992 2.763 1.538l-.01.05c9.25 5.194 23.247 13.35 42.85 20.662 31.874 11.885 52.627 19.315 60.781 31.202h.002s11.145 19.903 24.323 46.757a52.819 52.819 0 0 1-3.11 2.238c-13.125-26.729-24.203-46.512-24.203-46.512h-.002c-8.155-11.886-28.908-19.316-60.78-31.201-20.712-7.726-35.165-16.394-44.374-21.514z"/><path d="M295.84 18c2.28 0 6.236 2.105 12.003 5.345l-.011.05c9.25 5.194 23.247 13.35 42.851 20.662 31.873 11.885 52.626 19.315 60.78 31.202h.003s11.144 19.903 24.322 46.757a52.819 52.819 0 0 1-3.11 2.238c-13.125-26.729-24.203-46.512-24.203-46.512h-.002c-8.154-11.886-28.907-19.316-60.78-31.201-27.76-10.355-44.278-22.403-51.994-25.333.223-1.98.14-3.208.14-3.208z"/><path d="M307.852 23.345C302.08 20.105 298.124 18 295.844 18c0 0 5.881 32.495-46.335 32.495-48.52 0-46.336-32.495-46.336-32.495-2.28 0-6.235 2.105-12.002 5.345 0 0 7.368 40.38 58.402 40.38 51.479 0 58.279-35.895 58.279-40.38z"/></g><g transform="translate(285.5 122)"><path d="M5.25 42.697H0v-7.818h5.25c6.069 0 11.572 1.145 17.136 1.288l1.114.015c5.947 0 11.777-1.303 18.25-1.303H47v7.818h-5.25C34.03 42.697 30.398 44 23.5 44s-10.53-1.303-18.25-1.303zM14.361 1.303C17.407.434 20.454 0 23.5 0s6.093.434 9.139 1.303v7.818H14.36z" fill="#ffeb00"/><path d="M23.5 39.848c9.941 0 18-8.058 18-18 0-9.94-8.059-18-18-18s-18 8.06-18 18c0 9.942 8.059 18 18 18z" fill="#000" fill-rule="nonzero"/><ellipse cx="23.5" cy="21.848" fill="#fff" rx="15.667" ry="15.636"/></g><path d="M413.584 238.323c-9.287 2.238-19.064 3.316-28.798 2.592-8.197-22.369-15.557-36.883-20.012-44.748v270.577s-21.102 6.71-55.867 11.11l-.544-.059c1.881-54.795 5.722-166.47 8.277-240.705 2.055-59.755 31.084-95.29 60.099-117.44-2.676 6.78-5.072 14.606-7 23.667 7.354 11.852 24.436 42.069 43.831 94.964l.014.042zM190.717 477.795c-34.248-4.401-56.477-11.05-56.477-11.05V196.171c-4.456 7.867-11.813 22.38-20.01 44.743-9.632.716-19.308-.332-28.51-2.523.005-.033.012-.065.02-.097 19.377-52.848 36.305-83.066 43.61-94.944-1.93-9.075-4.328-16.912-7.007-23.701 29.015 22.15 58.044 57.685 60.1 117.44 2.554 74.235 6.395 185.91 8.276 240.705z" fill="#000" fill-opacity=".1"/></g></svg>