<?xml version="1.0" encoding="UTF-8"?><svg width="500" height="500" viewBox="0 0 500 500" fill="none" xmlns="http://www.w3.org/2000/svg"><path d="M203.003 109.223h93.643V21.928h-93.643v87.295z" fill="#A90421"/><path d="M202.864 32.2281h93.458v-14.2h-93.458v14.2z" fill="#E0E0E0"/><path d="M87.5475 75.2585S46.7848 148.059 29 203.029c4.4449 13.375 45.2077 40.86 85.232 37.885 13.34-36.4 24.46-52 24.46-52s2.963-95.0855-51.1445-113.6555zm323.9255 0s40.762 72.8005 58.547 127.7705c-4.445 13.375-45.208 40.86-85.232 37.885-13.34-36.4-24.46-52-24.46-52s-2.963-95.0855 51.145-113.6555z" fill="#DA0B30"/><path d="M249.511 57.7025c-50.082 0-47.798-39.4691-48.742-39.14-7.516 2.6187-24.133 14.9368-52.439 25.495-31.873 11.885-52.6259 19.315-60.7825 31.2 11.1149 8.915 46.6945 28.9695 46.6945 120.3445v271.14s49.658 14.856 114.885 14.856c68.929 0 115.648-14.856 115.648-14.856v-271.14c0-91.375 35.58-111.4295 46.7-120.3445-8.157-11.885-28.91-19.315-60.783-31.2-28.36-10.5767-44.982-22.9195-52.478-25.5087-.927-.3203 4.177 39.1537-48.703 39.1537z" fill="#DA0B30"/><path d="M307.852 23.345C302.08 20.105 298.124 18 295.844 18c0 0 5.881 32.495-46.335 32.495-48.521 0-46.336-32.495-46.336-32.495-2.279 0-6.235 2.105-12.002 5.345 0 0 7.368 40.38 58.402 40.38 51.479 0 58.279-35.895 58.279-40.38z" fill="#F2F2F2"/><path fill-rule="evenodd" clip-rule="evenodd" d="M283.752 480.343c-2.611.188-5.272.357-7.981.505V53.2154c3.095-1.3096 5.734-2.8502 7.981-4.5425V480.343zM164.276 51.03a228.251 228.251 0 01-7.559 3.097v417.922c2.481.513 5.146 1.04 7.982 1.571V51.03h-.423zm180.003 3.5141a228.5028 228.5028 0 01-7.982-3.1919V473.547c2.855-.546 5.519-1.087 7.982-1.613V54.5441zM217.244 480.396c2.619.189 5.281.358 7.982.506V53.3207c-3.071-1.3122-5.711-2.8629-7.982-4.5702V480.396z" fill="#F2F2F2"/><path d="M309 163c11.046 0 20-8.954 20-20s-8.954-20-20-20-20 8.954-20 20 8.954 20 20 20z" fill="#fff"/><path fill-rule="evenodd" clip-rule="evenodd" d="M413.584 238.323c-9.287 2.238-19.064 3.316-28.798 2.592-8.197-22.369-15.557-36.883-20.012-44.748v270.577s-21.102 6.71-55.867 11.111l-.544-.06c1.881-54.795 5.722-166.47 8.277-240.705 2.055-59.755 31.084-95.29 60.099-117.44-2.676 6.781-5.072 14.606-7 23.667 7.354 11.852 24.436 42.069 43.831 94.964.005.014.01.028.014.042zM190.717 477.795c-34.248-4.401-56.477-11.051-56.477-11.051V196.172c-4.456 7.867-11.813 22.379-20.009 44.743-9.633.716-19.3091-.332-28.511-2.524a1.056 1.056 0 01.0199-.096c19.3771-52.848 36.3051-83.066 43.6101-94.944-1.929-9.075-4.328-16.912-7.007-23.701 29.015 22.15 58.044 57.685 60.099 117.44 2.555 74.235 6.396 185.91 8.277 240.705h-.002z" fill="#000" fill-opacity=".1"/><path fill-rule="evenodd" clip-rule="evenodd" d="M309 163c11.046 0 20-8.954 20-20s-8.954-20-20-20-20 8.954-20 20 8.954 20 20 20z" fill="#fff"/></svg>